# xmcd
#
# Track frame offsets:
#	150
#	18236
#	37998
#	57181
#	76489
#	97289
#	114291
#	134453
#	150917
#	171845
#	188571
#	208731
#	229258
#	248880
#	266051
#	280012
#	298962
#	326668
#
# Disc length: 4767 seconds
#
# Revision: 8
# Processed by: cddbd v1.5.2PL0 Copyright (c) Steve Scherf et al.
# Submitted via: EasyCDDAExtractor 15.3.0.1
#
DISCID=00129d12
DTITLE=Laura Pausini - Lo Mejor De Laura Pausini - Volvere Junto A Ti
DYEAR=2001
DGENRE=Latin
TTITLE0=Volvere Junto A Ti
TTITLE1=La Soledad
TTITLE2=Se Fue
TTITLE3=Amores Extraños
TTITLE4=Gente (Ordinary People)
TTITLE5=Inolvidable
TTITLE6=Las Cosas Que Vives
TTITLE7=Cuando Se Ama (Sei Que Me Amavas) (Duo Con Gilberto Gil)
TTITLE8=Escucha A Tu Corazon
TTITLE9=La Mia Risposta
TTITLE10=En Ausencia De Ti
TTITLE11=Emergencia De Amor
TTITLE12=One More Time
TTITLE13=Entre Tu Y Mil Mares
TTITLE14=Un Error De Los Grandes
TTITLE15=Dos Historias Iguales
TTITLE16=Dime (Duo Con Jose El Frances)
TTITLE17=Data Track
EXTD=
EXTT0=
EXTT1=
EXTT2=
EXTT3=
EXTT4=
EXTT5=
EXTT6=
EXTT7=
EXTT8=
EXTT9=
EXTT10=
EXTT11=
EXTT12=
EXTT13=
EXTT14=
EXTT15=
EXTT16=
EXTT17=
PLAYORDER=
